<?xml version="1.0" encoding="utf-8"?>
<!-- Generator: Adobe Illustrator 21.1.0, SVG Export Plug-In . SVG Version: 6.00 Build 0)  -->
<svg version="1.1" id="Слой_1" xmlns="http://www.w3.org/2000/svg" xmlns:xlink="http://www.w3.org/1999/xlink" x="0px" y="0px"
	 viewBox="0 0 841.9 535.9" style="enable-background:new 0 0 841.9 535.9;" xml:space="preserve">
<style type="text/css">
	.st0{fill:#213A8B;}
	.st1{fill:#DA5155;}
	.st2{fill:none;}
</style>
<path class="st0" d="M248.4,245.8c7.9,0,14.3,3.5,17,6.1l-4.5,5.5c-2.2-2-7.1-4.7-12.5-4.7c-9.9,0-16.1,6.8-16.1,16.1
	s5.9,16.1,16.2,16.1c6,0,11.2-3.2,13.4-5.4l4.3,5.7c-2.7,2.8-9.5,6.6-17.8,6.6c-14.6,0-23.6-9.8-23.6-23.1
	C224.8,255.6,234.1,245.8,248.4,245.8"/>
<path class="st0" d="M293.4,245.8c13.5,0,23.3,9.8,23.3,23.1c0,13.3-9.8,23.1-23.3,23.1c-13.5,0-23.3-9.8-23.3-23.1
	C270.1,255.6,279.9,245.8,293.4,245.8 M293.4,285.1c9.1,0,15.9-6.9,15.9-16.1c0-9.3-6.7-16.1-15.9-16.1s-15.9,6.9-15.9,16.1
	C277.5,278.2,284.3,285.1,293.4,285.1"/>
<path class="st0" d="M363.1,278.2c0,6.5-4.2,12.8-14.9,12.8h-23.5v-44.1h22.1c9,0,14.1,5.5,14.1,11.8c0,3.5-1.6,6.7-5.5,9.3
	C359.3,269.3,363.1,272.1,363.1,278.2 M331.9,253.8v11.7l14-0.1c5,0,7.6-2.8,7.6-6.1c0-3-2.2-5.6-6.6-5.6H331.9z M348.6,284.1
	c5.1,0,7.1-2.8,7.1-5.9c0-3.3-2.3-6.1-6.9-6.1h-16.8v12H348.6z"/>
<polygon class="st0" points="392.1,268.2 411.7,291 402,291 385.7,271.7 377.3,271.7 377.3,291 370.1,291 370.1,246.8 377.3,246.8 
	377.3,265.1 385.7,265.1 401.6,246.8 411.3,246.8 "/>
<path class="st0" d="M434.1,245.8c13.5,0,23.3,9.8,23.3,23.1c0,13.3-9.8,23.1-23.3,23.1c-13.5,0-23.3-9.8-23.3-23.1
	C410.7,255.6,420.6,245.8,434.1,245.8 M434.1,285.1c9.1,0,15.9-6.9,15.9-16.1c0-9.3-6.7-16.1-15.9-16.1c-9.1,0-15.9,6.9-15.9,16.1
	C418.2,278.2,424.9,285.1,434.1,285.1"/>
<polygon class="st0" points="506.2,246.8 513.2,246.8 513.2,291 506,291 506,258.2 491.4,277.6 487,277.6 472.5,258.2 472.5,291 
	465.3,291 465.3,246.8 472.3,246.8 489.2,269.5 "/>
<path class="st0" d="M546.4,264.9c9.7,0,15,5.7,15,13c0,7.3-5.3,13.1-14.5,13.1h-24v-44.1h34.4v6.9h-27.1v11.1H546.4z M546.6,284.1
	c5,0,7.3-2.8,7.3-6.1c0-3.3-2.3-6.1-7.3-6.1h-16.4v12.2H546.6z"/>
<path class="st0" d="M601.7,291l-4.8-11h-20.9l-4.8,11h-7.9l19.2-44.1h8l19.2,44.1H601.7z M578.9,273.3h15.2l-7.6-17.6L578.9,273.3z
	"/>
<polygon class="st0" points="647.8,246.8 655.1,246.8 655.1,291 647.8,291 647.8,272.1 622.3,272.1 622.3,291 615,291 615,246.8 
	622.3,246.8 622.3,265.1 647.8,265.1 "/>
<polygon class="st0" points="686.9,268.2 706.5,291 696.8,291 680.5,271.7 672.1,271.7 672.1,291 664.9,291 664.9,246.8 
	672.1,246.8 672.1,265.1 680.5,265.1 696.5,246.8 706.1,246.8 "/>
<path class="st1" d="M137.5,268.9c0,20.3,16.4,36.7,36.7,36.7c0.5,0,1,0,1.5,0v-13.9h-1.5c-12.6,0-22.7-10.2-22.7-22.7
	c0-12.6,10.2-22.7,22.7-22.7h1.5v-13.9c-0.5,0-1,0-1.5,0C153.9,232.2,137.5,248.7,137.5,268.9"/>
<path class="st0" d="M181.5,233V252h-7.3c-9.3,0-16.9,7.6-16.9,16.9c0,9.3,7.6,16.9,16.9,16.9h7.3v19.1
	c16.7-3.4,29.3-18.2,29.3-35.9C210.9,251.2,198.3,236.4,181.5,233"/>
<rect x="99" y="192.9" class="st2" width="646" height="152.1"/>
</svg>
